<?xml version="1.0" encoding="UTF-8" standalone="no"?>
<!DOCTYPE svg PUBLIC "-//W3C//DTD SVG 1.1//EN" "http://www.w3.org/Graphics/SVG/1.1/DTD/svg11.dtd">
<svg width="100%" height="100%" viewBox="0 0 693 693" version="1.1" xmlns="http://www.w3.org/2000/svg" xmlns:xlink="http://www.w3.org/1999/xlink" xml:space="preserve" xmlns:serif="http://www.serif.com/" style="fill-rule:evenodd;clip-rule:evenodd;stroke-linejoin:round;stroke-miterlimit:2;">
    <g transform="matrix(1,0,0,1,-2183.8,-2404.91)">
        <g transform="matrix(1,0,0,1,398.119,780.565)">
            <g id="Patreon-Logo" serif:id="Patreon Logo">
                <g transform="matrix(0.997672,0,0,0.997672,1198.26,987.855)">
                    <rect x="588.794" y="637.973" width="694.444" height="694.444" style="fill:white;"/>
                </g>
                <g transform="matrix(1.01489,0,0,1.01489,2787.33,1874.84)">
                    <clipPath id="_clip1">
                        <rect x="-840" y="-192.5" width="388.769" height="385"/>
                    </clipPath>
                    <g clip-path="url(#_clip1)">
                        <g transform="matrix(1,0,0,1,-840,-192.5)">
                            <clipPath id="_clip2">
                                <rect x="0" y="0" width="1680" height="385"/>
                            </clipPath>
                            <g clip-path="url(#_clip2)">
                                <g>
                                    <g>
                                        <g>
                                            <path d="M206,0C217.1,2 228.4,3.3 239.3,6C314.5,24.6 371.5,88.4 382.1,165.4C396.2,267.8 329.6,361.4 228.1,381.7C220.8,383.2 213.3,384 205.9,385.1L103.9,385.1C103.9,320.6 103.9,256.1 104,191.7C104,187.4 104.4,183 105.1,178.8C111.7,135.5 151.2,102.8 194.5,104.5C240.2,106.4 276.9,141.7 279.8,186.7C284.1,253.5 216.1,300.4 155.2,272.6C153.9,272 152.6,271.5 150.7,270.8C150.7,291.3 150.6,311.1 150.9,330.9C150.9,332.1 153.2,333.9 154.7,334.3C174.2,339.9 194.1,341 214.1,337.8C298.7,324.2 353.3,243.9 335,160.5C318.1,83.3 240.9,32.8 164,48.5C94.4,62.5 45.8,121.9 45.6,193.1C45.5,255.4 45.6,317.7 45.6,380C45.6,381.7 45.8,383.3 46,385L0,385L0,178C0.6,174.1 1.3,170.2 1.8,166.2C12.4,88.5 69.1,24.9 145.2,5.9C156,3.2 167.1,1.9 178,0L206,0Z" style="fill:rgb(230,70,26);fill-rule:nonzero;"/>
                                            <path d="M481.8,251.5L481.8,342.9L451.2,342.9C451.1,341.6 450.9,340.3 450.9,339C450.9,285.8 450.7,232.7 451,179.5C451.3,131.4 485,90.8 532,81.3C588.5,69.9 643.8,109.6 651.2,166.8C658.5,223.2 619.7,273.8 563.1,280.6C533.4,284.1 507.8,273.9 485.8,254.1C484.8,253.2 484.3,251.6 483.5,250.3C482.9,250.7 482.4,251.1 481.8,251.5ZM551.7,250.4C590.4,250.3 621.3,219.1 621.3,180.3C621.2,141.6 589.9,110.3 551.4,110.5C512.8,110.7 481.8,141.9 481.9,180.7C481.8,219.3 513,250.5 551.7,250.4Z" style="fill:rgb(34,44,49);fill-rule:nonzero;"/>
                                        </g>
                                    </g>
                                </g>
                            </g>
                        </g>
                    </g>
                </g>
                <g transform="matrix(0.405113,0,0,0.405113,2041.54,2201.94)">
                    <clipPath id="_clip3">
                        <rect x="-392.914" y="-192.5" width="1232.91" height="385"/>
                    </clipPath>
                    <g clip-path="url(#_clip3)">
                        <g transform="matrix(1,0,0,1,-840,-192.5)">
                            <clipPath id="_clip4">
                                <rect x="0" y="0" width="1680" height="385"/>
                            </clipPath>
                            <g clip-path="url(#_clip4)">
                                <g>
                                    <g>
                                        <g>
                                            <path d="M206,0C217.1,2 228.4,3.3 239.3,6C314.5,24.6 371.5,88.4 382.1,165.4C396.2,267.8 329.6,361.4 228.1,381.7C220.8,383.2 213.3,384 205.9,385.1L103.9,385.1C103.9,320.6 103.9,256.1 104,191.7C104,187.4 104.4,183 105.1,178.8C111.7,135.5 151.2,102.8 194.5,104.5C240.2,106.4 276.9,141.7 279.8,186.7C284.1,253.5 216.1,300.4 155.2,272.6C153.9,272 152.6,271.5 150.7,270.8C150.7,291.3 150.6,311.1 150.9,330.9C150.9,332.1 153.2,333.9 154.7,334.3C174.2,339.9 194.1,341 214.1,337.8C298.7,324.2 353.3,243.9 335,160.5C318.1,83.3 240.9,32.8 164,48.5C94.4,62.5 45.8,121.9 45.6,193.1C45.5,255.4 45.6,317.7 45.6,380C45.6,381.7 45.8,383.3 46,385L0,385L0,178C0.6,174.1 1.3,170.2 1.8,166.2C12.4,88.5 69.1,24.9 145.2,5.9C156,3.2 167.1,1.9 178,0L206,0Z" style="fill:rgb(230,70,26);fill-rule:nonzero;"/>
                                            <path d="M1680,272L1648.3,272L1648.3,249.1C1648.2,219.6 1648.3,190.1 1648,160.6C1647.7,137.5 1630.3,116.7 1607.7,112C1576.7,105.5 1545.2,130.6 1545.1,162.4C1545,196.9 1545.2,231.4 1545.3,265.9L1545.3,272.1L1514.5,272.1L1514.5,88.9L1545,88.9L1545,99C1555,90.1 1565.6,84.6 1577.6,81.6C1624.8,69.7 1674.2,104.4 1679,152.8C1679.1,154.2 1679.6,155.7 1679.9,157.1C1680,195.3 1680,233.7 1680,272Z" style="fill:rgb(34,44,49);fill-rule:nonzero;"/>
                                            <path d="M481.8,251.5L481.8,342.9L451.2,342.9C451.1,341.6 450.9,340.3 450.9,339C450.9,285.8 450.7,232.7 451,179.5C451.3,131.4 485,90.8 532,81.3C588.5,69.9 643.8,109.6 651.2,166.8C658.5,223.2 619.7,273.8 563.1,280.6C533.4,284.1 507.8,273.9 485.8,254.1C484.8,253.2 484.3,251.6 483.5,250.3C482.9,250.7 482.4,251.1 481.8,251.5ZM551.7,250.4C590.4,250.3 621.3,219.1 621.3,180.3C621.2,141.6 589.9,110.3 551.4,110.5C512.8,110.7 481.8,141.9 481.9,180.7C481.8,219.3 513,250.5 551.7,250.4Z" style="fill:rgb(34,44,49);fill-rule:nonzero;"/>
                                            <path d="M1127.7,221.3C1142.5,243.9 1173.8,255.1 1201.5,247.7C1218.4,243.2 1231.9,233.5 1241.6,219C1251.3,204.5 1254.9,188.3 1252.8,170.6L1283.4,170.6C1288.9,209.3 1265.8,259.8 1214,276.3C1165,291.9 1112.1,267.9 1091.4,220.8C1070.6,173.5 1088.9,118 1134,92.3C1180.7,65.7 1233,83.1 1257.4,112.2C1214.2,148.5 1171.1,184.8 1127.7,221.3ZM1114.7,191.8C1145.8,165.7 1176,140.3 1206.5,114.6C1183.2,104.9 1153.5,111.4 1134.6,130.3C1118,147 1111.7,167.3 1114.7,191.8Z" style="fill:rgb(34,44,49);fill-rule:nonzero;"/>
                                            <path d="M864,272.1L833.1,272.1L833.1,253.2C831.5,254.5 830.6,255.2 829.8,255.9C772.5,305.5 684.2,277.9 665.6,204.6C648.5,137 704.1,72.7 773.4,79.7C824.4,84.9 863.4,127.4 863.9,178.6C864.2,208.6 864,238.6 864,268.6L864,272.1ZM693.5,180C693.4,218.4 724.5,249.9 762.7,250.1C801.3,250.2 833,219.3 833.1,181.3C833.2,141.6 802.4,110.2 763.5,110.2C724.9,110 693.6,141.3 693.5,180Z" style="fill:rgb(34,44,49);fill-rule:nonzero;"/>
                                            <path d="M1295.3,180C1295.4,124.4 1340.6,79.2 1396,79.2C1451.6,79.2 1497,124.9 1496.7,180.5C1496.4,236.2 1451.3,281.1 1395.7,281C1340.3,280.9 1295.2,235.6 1295.3,180ZM1395.9,250C1434.5,250 1465.9,218.8 1465.9,180.2C1466,141.7 1434.6,110.1 1396.2,110C1357.7,109.9 1326.2,141.3 1326.1,179.8C1326.1,218.5 1357.4,250 1395.9,250Z" style="fill:rgb(34,44,49);fill-rule:nonzero;"/>
                                            <path d="M873.8,88.3L891.5,88.3L891.5,17.5L922.5,17.5L922.5,88.3L968.7,88.3L968.7,119.2L922.6,119.2L922.6,272L891.8,272L891.8,266C891.8,219 891.7,172 891.9,125C891.9,120.5 890.8,118.7 886.1,119.2C882.2,119.6 878.2,119.3 873.9,119.3C873.8,108.9 873.8,99 873.8,88.3Z" style="fill:rgb(34,44,49);fill-rule:nonzero;"/>
                                            <path d="M1015.5,115.1C1030.2,101.9 1047,92.8 1066.4,89.4C1073.2,88.2 1080.2,88.1 1087.6,87.4L1087.6,115.8C1087.6,119.3 1085,118.7 1083,118.7C1067.6,118.9 1053.8,123.8 1041.9,133.3C1024.6,147 1015.2,165 1014.9,187.2C1014.6,213.5 1014.8,239.9 1014.8,266.2L1014.8,272L984.3,272L984.3,88.7L1014.2,88.7L1014.2,114.5C1014.7,114.7 1015.1,114.9 1015.5,115.1Z" style="fill:rgb(34,44,49);fill-rule:nonzero;"/>
                                        </g>
                                    </g>
                                </g>
                            </g>
                        </g>
                    </g>
                </g>
            </g>
        </g>
    </g>
</svg>
