<?xml version="1.0" encoding="UTF-8" standalone="no"?>
<!DOCTYPE svg PUBLIC "-//W3C//DTD SVG 1.1//EN" "http://www.w3.org/Graphics/SVG/1.1/DTD/svg11.dtd">
<svg width="100%" height="100%" viewBox="0 0 574 574" version="1.1" xmlns="http://www.w3.org/2000/svg" xmlns:xlink="http://www.w3.org/1999/xlink" xml:space="preserve" xmlns:serif="http://www.serif.com/" style="fill-rule:evenodd;clip-rule:evenodd;stroke-linejoin:round;stroke-miterlimit:2;">
    <g transform="matrix(1,0,0,1,-860.036,-779.968)">
        <g id="Music-Icon" serif:id="Music Icon">
            <g transform="matrix(1,0,0,1,222.093,-149.769)">
                <circle cx="924.907" cy="1216.7" r="286.964" style="fill:url(#_Linear1);"/>
            </g>
            <g id="quaver" transform="matrix(0.895403,0,0,0.895403,120.475,121.859)">
                <g transform="matrix(1.40494,0,0,1.18837,-385.452,-169.064)">
                    <ellipse cx="1002.39" cy="1121.17" rx="32.786" ry="31.307" style="fill:white;"/>
                </g>
                <g transform="matrix(1.40419,0,0,1.1949,-184.63,-202.811)">
                    <ellipse cx="1002.39" cy="1121.17" rx="32.786" ry="31.307" style="fill:white;"/>
                </g>
                <g transform="matrix(1.07945,0,0,1.00006,-91.4906,-32.4505)">
                    <path d="M1074.92,1196.23L1059.2,1196.23L1059.2,943.819C1059.2,943.819 1101.19,937.505 1170.33,937.505C1240.35,937.505 1260.3,943.819 1260.3,943.819L1260.3,1170.14L1244.58,1170.14C1244.58,1170.14 1245.87,983.116 1245.87,983.116C1245.87,983.116 1226.6,976.802 1170.32,976.802C1115.72,976.802 1076.21,983.116 1076.21,983.116L1074.92,1196.23Z" style="fill:white;"/>
                </g>
            </g>
        </g>
    </g>
    <defs>
        <linearGradient id="_Linear1" x1="0" y1="0" x2="1" y2="0" gradientUnits="userSpaceOnUse" gradientTransform="matrix(-4.16157,-555.601,555.601,-4.16157,932.351,1495.31)"><stop offset="0" style="stop-color:rgb(255,73,0);stop-opacity:1"/><stop offset="0.44" style="stop-color:rgb(255,90,0);stop-opacity:1"/><stop offset="1" style="stop-color:rgb(255,129,0);stop-opacity:1"/></linearGradient>
    </defs>
</svg>
