<?xml version="1.0" encoding="UTF-8" standalone="no"?>
<!DOCTYPE svg PUBLIC "-//W3C//DTD SVG 1.1//EN" "http://www.w3.org/Graphics/SVG/1.1/DTD/svg11.dtd">
<svg width="100%" height="100%" viewBox="0 0 574 574" version="1.1" xmlns="http://www.w3.org/2000/svg" xmlns:xlink="http://www.w3.org/1999/xlink" xml:space="preserve" xmlns:serif="http://www.serif.com/" style="fill-rule:evenodd;clip-rule:evenodd;stroke-linecap:square;stroke-linejoin:bevel;stroke-miterlimit:1.5;">
    <g transform="matrix(1,0,0,1,-1400.69,-1105.21)">
        <g transform="matrix(1,0,0,1,762.749,175.472)">
            <circle cx="924.907" cy="1216.7" r="286.964" style="fill:url(#_Linear1);"/>
        </g>
        <g transform="matrix(5.0305e-17,0.821542,-0.33329,2.04081e-17,2275.4,798.143)">
            <path d="M645.722,1314.66L669.883,1314.66L709.883,1437L710.674,1437L751.074,1314.66L775.205,1314.66L775.205,1514.85L645.722,1514.85L645.722,1314.66ZM672.805,1410.75L672.805,1487.77L748.122,1487.77L748.122,1409.97L730.252,1464.08L690.244,1464.08L672.805,1410.75Z"/>
        </g>
        <g transform="matrix(5.0305e-17,-0.821542,0.33329,2.04081e-17,1101.74,1965.49)">
            <path d="M645.722,1314.66L669.883,1314.66L709.883,1437L710.674,1437L751.074,1314.66L775.205,1314.66L775.205,1514.85L645.722,1514.85L645.722,1314.66ZM672.805,1410.75L672.805,1487.77L748.122,1487.77L748.122,1409.97L730.252,1464.08L690.244,1464.08L672.805,1410.75Z"/>
        </g>
        <g transform="matrix(0.821542,0,0,0.821542,896.132,296.168)">
            <path d="M1127.26,1523.03L1082.01,1523.03L992.747,1210.29L936.265,1210.29L853.816,1523.03L808.625,1523.03L832.505,1134.67L1101.86,1133.89L1127.26,1523.03Z"/>
        </g>
        <g transform="matrix(0.821542,0,0,0.821542,897.263,330.635)">
            <path d="M962.283,1520L962.283,1331.36" style="fill:none;stroke:black;stroke-width:48.18px;"/>
        </g>
        <g transform="matrix(5.0305e-17,0.821542,-0.821542,5.0305e-17,2859.08,552.47)">
            <path d="M962.283,1520L962.283,1331.36" style="fill:none;stroke:black;stroke-width:48.18px;"/>
        </g>
    </g>
    <defs>
        <linearGradient id="_Linear1" x1="0" y1="0" x2="1" y2="0" gradientUnits="userSpaceOnUse" gradientTransform="matrix(-4.16157,-555.601,555.601,-4.16157,932.351,1495.31)"><stop offset="0" style="stop-color:rgb(255,73,0);stop-opacity:1"/><stop offset="0.44" style="stop-color:rgb(255,90,0);stop-opacity:1"/><stop offset="1" style="stop-color:rgb(255,129,0);stop-opacity:1"/></linearGradient>
    </defs>
</svg>
